<svg width="1135" height="916" viewBox="0 0 1135 916" fill="none" xmlns="http://www.w3.org/2000/svg">
<path d="M60.9019 915.49C61.1727 915.544 61.4361 915.369 61.4903 915.098L62.3728 910.685C62.427 910.415 62.2514 910.151 61.9806 910.097C61.7098 910.043 61.4464 910.219 61.3922 910.489L60.6078 914.412L56.6854 913.627C56.4147 913.573 56.1513 913.749 56.0971 914.019C56.0429 914.29 56.2185 914.554 56.4893 914.608L60.9019 915.49ZM54.584 906.277L60.584 915.277L61.416 914.723L55.416 905.723L54.584 906.277Z" fill="white"/>
<path d="M1134.5 214C836.5 -232.5 558.499 143.5 437.999 250C266.376 401.683 414.658 268.456 78.4994 548C-63.9999 666.5 30.3341 875.499 49.5007 898.499" stroke="white" strokeDasharray="10 10"/>
</svg>
